<svg id="eU9f4sLS8Fb1" xmlns="http://www.w3.org/2000/svg" xmlns:xlink="http://www.w3.org/1999/xlink" viewBox="0 0 3000 2000" shape-rendering="geometricPrecision" text-rendering="geometricPrecision" project-id="d3803dc83515413eb5cd8e64aff180c9" export-id="58f1983d266e4999bee6e7bc0c74d39e" cached="true"><g transform="matrix(2.236049 0 0 2.236049 253.503489-30.586337)"><g transform="translate(0 0.000001)"><path d="M463.731344,37.407304q5.557732-9.061702,156.713109,136.49175q48.031246-64.041661,72.046869-88.999073t43.3223-15.068627q23.544729,58.390927,50.708056,223.560329q105.118037,88.269851,116.472251,149.80236q81.489965,63.821458,205.825487,112.163841c-34.863737,103.053103-92.799063,90.748254-87.159341,93.824466q-32.07356,36.309689-93.311765,45.630479q2.050808-6.152424,7.177828-18.969974-21.020783,8.715934-39.990756,6.665126-3.076212,5.639722,8.203232-22.046186c-24.609696,3.588914-49.219392-.512702-42.554266-1.538106q6.665126-1.025404,14.355656-24.609697-27.173206-21.020782-72.803685-43.57967c-19.995378,37.939948,7.177828,101.002295,10.766742,101.002295q3.588914,0,23.07159-16.919166l6.665126,32.812928q19.482677-6.665126,38.965353-16.406464q10.25404,18.457272-3.588914,55.371816q11.279444,6.665127,11.279444,6.152425c0-.512702-78.443407,89.72285-138.429541,42.554266q-37.939948-73.829089-118.946866-132.277117c-31.728047-5.268558-60.379142.898973-77.349301,15.261088-70.331792,59.522912-26.200097,153.090768,112.463116,181.022323q-146.72722,52.271572-293.035087-2.507744q3.248827,8.468537,4.967184,16.812108Q141.761598,797.907825,96.783518,629.689593q-8.015852,4.453251-32.954053,19.594302Q25.531512,466.700633,211.677376,326.868573q-33.844703-13.359749-33.844703-14.2504c0-.890651,63.236155-51.657703,209.302765-71.252005Q405.83909,39.188604,463.731344,37.407304Z" transform="translate(.000001 0.000001)" fill="#e7e3d1" stroke-width="2.286"/><path d="M460.371939,55.297132q50.1888,46.307675,162.549126,147.524828q71.502026-94.716969,100.288556-117.003315q33.429518,168.076191,47.812626,219.50995c55.152928,32.927122,114.010158,119.360815,114.010158,141.175033c55.564517,67.08901,152.699525,91.78435,202.501796,120.183993q-23.048985,55.564518-64.207887,58.857229-2.469534-3.292712-8.23178,1.646356c-17.698328,27.576464-53.918161,41.158902-50.625449,37.86619q3.292712-3.292712,11.524492-26.753286-9.466547-1.234767-16.46356,0c-9.878136,11.936082-39.512546,28.399642-35.396656,24.283752q4.11589-4.11589,6.585425-25.930108-6.173836-3.292713-13.170849-3.292713-12.34767,7.820191-24.695341,10.701315q6.173835-11.112904,7.820191-17.698328-22.637396-11.936082-56.178916-37.259346-36.428613-24.890595-53.749751-11.803867-37.519434,50.377218,14.333267,138.695437q17.299505-9.840644,19.399295-12.08042q1.119888,8.39916-5.59944,26.037397l6.859314,4.759524q32.056795-14.138587,42.275773-19.878013.69993,16.378362-14.138586,36.956305q5.59944,3.219678,7.69923,4.759524-61.787767,54.273039-95.221098,26.684529-63.457707-91.846681-124.410505-136.935052-70.972436-13.359517-111.885957,28.388974-78.487164,115.225837,76.817224,183.693363-137.770022,29.223944-267.190346-40.913522q5.844789,15.029457,8.349699,26.719035-199.557789-62.622737-238.801372-245.481131-29.143398,18.740202-30.017953,18.372372Q62.993121,432.032891,253.204131,323.656851l-36.125345-14.74504q80.360464-43.497866,186.52475-48.65863Q416.874071,90.685226,460.371939,55.297132Z" transform="translate(.000001 0.000001)" fill="#010511" stroke-width="2.286"/><path d="M470.020113,110.275655q-45.968801,52.535774-42.216246,259.86445-11.257665-6.566972-22.515331-86.308771-61.917161,8.443249-106.009685,33.772997-.938139,1.876278,15.94836,7.505111-137.906406,57.226466-158.545459,170.741262q27.206026-26.267886,75.989244-37.525552-118.20549,140.720821,54.41205,268.307699q7.505111-102.25713,119.143629-137.906405q43.154384-17.824638,112.576656-25.329748q13.133943-10.319526,20.639054-21.577192-70.36041-.938139-109.76224-15.94836c-2.665227-1.776818,10.243944-2.822126,34.711136-15.010221c9.981839-4.972357,28.144165-14.072082,38.463691-23.45347q-58.621214-10.702488-87.246909-34.711136q41.278107-5.628832,66.607855-27.206025l-30.020442-17.824637q87.246908,6.566971,143.535237-27.206026c56.288329-33.772997-76.927382,61.917161-115.391073,68.484133s82.556216,27.206025,109.762241,15.010221-52.535774,36.587414-79.741799,45.968802s143.535237,12.195805,183.875206-24.391609c-4.690694,10.319526-11.257666,17.824637-10.319527,18.762776s153.854764-31.896719,290.82303,61.917161q-.938139,0,36.587413-8.443249-74.366886-61.637234-141.9653-47.699417c-11.150254.696891,32.05698-16.725381,34.844543-11.150254s-3.484455-20.906725-43.904125-8.36269q-9.756472-29.269417-17.422271-63.417069-57.841943-81.536231-105.230521-106.624302c-32.75387,32.753871-78.051776,57.841942-78.748667,57.841942s39.025888-41.116561,23.694289-61.326396-198.658547-204.44079-212.574039-206.754025Z" fill="#79bee8" stroke-width="2.286"/></g><path d="M416.896963,747.418655q-121.092268-79.744565-4.285559-163.016444q87.0282-23.548807,105.647815-21.278567l97.266811-27.644251-5.119306,28.668112q53.939043-54.904679,127.505848-62.937076c73.566805-8.032397,171.393941,18.37227,241.498656,67.929051q7.167028,38.906724-80.275653,26.747722-83.956617-61.431671-105.457701-46.073753c-21.501084,15.357918,7.845288-31.058464,39.584984-27.986881s-59.111107-22.561492-82.575058,41.513143q-24.300151,63.31006,6.693353,121.422881q14.326663,29.807252,41.44598,61.285031-20.346975,11.303875-58.026558-57.272966-137.153684-172.195696-268.278634-95.706142q55.388988-18.462996,117.937096,16.955813c-102.969512-15.625723-174.943346,20.993944-187.267529,88.54702-3.129337,17.152973,6.028733,28.259688,13.705455,48.847307Z" fill="#e5e2d3" stroke-width="2.286"/><g><path d="M289.007677,725.20364c0,1.368852-69.127034-82.815556,41.065565-170.422095q-13.688522-.684427-47.909826,11.635242q52.700807-72.549164,167.68439-94.450799q30.799174,11.635243,57.31709,14.762441-38.153159,26.98755-77.849872,37.253941q17.110652,13.688522,111.509271,17.910075c-7.620634,12.540257-14.54348,19.45814-21.504616,20.569633q-31.789433-1.869967-108.484159,24.487492-115.129015,33.120209-121.827843,138.25407Z" transform="translate(0 0.000001)" fill="#579ed2" stroke-width="2.286"/><path d="M608.143093,375.465414q-66.60883,47.04959-138.377531,77.603616q10.994785,15.260157,114.067965,15.894716-24.309567,18.699667-77.603616,44.8792q78.505862,17.72713,180.451781-20.569633l-4.446365,10.988386q24.480321-4.220745,57.402135-2.532447c32.921814,1.688298,47.272348,1.688298,47.272348,0s-82.726608-9.28564-81.03831-12.662236s5.909043-16.038833,12.662236-24.480323-43.051602,24.480324-123.245762,21.103727q-6.753193,5.909043,47.272347-48.960646-90.323949,20.259577-103.830334,1.688298q20.259577-5.909043,69.413106-62.952658Z" transform="translate(.000001 0.000001)" fill="#579ed2" stroke-width="2.286"/></g><g transform="translate(0 0.000001)"><g><path d="M474.233189,159.722343q35.83514,20.477223,130.030368,145.388286-12.286334,0-44.02603-2.047722q32.763558,40.954447,34.81128,61.43167c2.047722,20.477223,3.071584-23.548806-113.64859-26.62039q10.238612-9.214751,46.073753-20.477224q8.190889-12.286334-34.81128-41.978308q4.095444,1.023861,28.668113-3.071583-18.429501-88.052061-47.097614-112.624729Z" fill="#09070f" stroke-width="2.286"/><path d="M473.209327,160.746204q-40.954446,146.412147-16.381778,203.748373q22.524945,0,68.598697,2.047722-29.579724-20.477223-40.842197-26.62039c-11.262473-6.143167,44.937642-25.596529,44.937642-24.572668s-5.119306-22.524947-33.787419-37.882864q-4.095444-1.023861,24.995271-6.143166-3.494185-54.264642-47.520216-110.577007Z" transform="matrix(1.048066 0 0 1-20.332682 1.023861)" fill="#e7e1d5" stroke-width="2.286"/></g><path d="M698.729844,274.907341l-54.527076-52.255115q24.991576-53.391096,61.34296-94.286403c-.571362-6.856347-5.656241,22.693931-7.951865,81.790614-.747145,19.23389,2.065773,38.530785,1.135981,64.750904Z" transform="translate(0 0.000001)" fill="#79bee8" stroke-width="2.286"/></g><g transform="translate(.000001 0)"><path d="M726.352891,473.359793q73.804456-4.125714,109.102238,16.961273.458412-6.41778-25.671115-35.297784l-93.057791-57.760008l17.419685,32.088893q-1.833651,16.50286,5.959366,33.464132c-1.833651,4.125715-13.29397,10.543495-13.752383,10.543494Z" transform="translate(0 0.000001)" fill="#010411" stroke-width="2.286"/><path d="M759.35861,439.895662q-2.750476,16.50286,4.125715,22.920638c4.584127.916824,12.026063-.13372,12.026063-.592133q0-.458413,0-6.346855h8.194073q-9.26562-9.22155-24.345851-15.98165Z" transform="translate(0 0.000001)" fill="#e6e0cd" stroke-width="2.286"/></g><g transform="translate(.000001 0)"><path d="M406.658351,302.039046q1.023861-18.429502,0-20.477224c-1.023861-2.047722-94.405123,20.777559-107.994736,35.934626q1.023861,1.023861,13.089766,10.284816-137.404759,54.683765-154.779592,171.452864q27.806336-31.034509,74.371027-38.685233-93.498332,111.263015,0,216.91613Q167.76595,540.957461,300.913094,424.10589q-39.199435.42608-65.616445,8.947697c-11.078101-.852161,57.094829-95.016021,121.859112-105.24196q-5.18933-1.527104-13.033447-8.164433q21.891772-13.494127,62.536037-17.608148Z" transform="translate(.000001 0.000002)" fill="#badaee" stroke-width="2.286"/><path d="M470.700546,108.060185Q656.762227,284.772033,686.681693,324.976316q-.934984,21.504616-14.959733,38.334315q7.479865-27.114516-29.919467-68.253782t-171.101947-186.996664Z" transform="translate(0 0.000001)" fill="#b4d8f2" stroke-width="2.286"/><path d="M868.249953,510.219734q72.824479-13.415036,145.265672,46.760982-1.724317,2.586476-17.247903,3.832867-59.045088-41.110105-128.017769-50.593849Z" transform="translate(0 0.000001)" fill="#b9d8f1" stroke-width="2.286"/><path d="M718.471125,339.936049q7.479866-10.284818,21.504617-19.634649c55.865289,34.788619,119.459198,97.984627,120.394181,169.04336q30.85445-10.284817,46.582677,11.265035l-28.921941,2.991925q1.257596-10.328409-25.85692-8.458442-28.0495-101.913181-133.702614-155.207229Z" transform="translate(.000001 0.000002)" fill="#bdd8f2" stroke-width="2.286"/></g></g></svg>
