<svg id="e6yGSdz3QpZ1" xmlns="http://www.w3.org/2000/svg" xmlns:xlink="http://www.w3.org/1999/xlink" viewBox="0 0 1920 1080" shape-rendering="geometricPrecision" text-rendering="geometricPrecision" project-id="e5d8caa2127549348a5513071856f386" export-id="f66a86e79b1c4e66aada12e6a4651aca" cached="true"><defs><linearGradient id="e6yGSdz3QpZ20-fill" x1="0.836166" y1="0.332891" x2="0.906816" y2="1.241045" spreadMethod="pad" gradientUnits="objectBoundingBox" gradientTransform="translate(0 0)"><stop id="e6yGSdz3QpZ20-fill-0" offset="0%" stop-color="#3478ba"/><stop id="e6yGSdz3QpZ20-fill-1" offset="100%" stop-color="#aeddff"/></linearGradient><linearGradient id="e6yGSdz3QpZ26-fill" x1="0.414037" y1="0.793719" x2="0.4177" y2="0.543332" spreadMethod="pad" gradientUnits="objectBoundingBox" gradientTransform="translate(0 0)"><stop id="e6yGSdz3QpZ26-fill-0" offset="61%" stop-color="#42d837"/><stop id="e6yGSdz3QpZ26-fill-1" offset="64.3365%" stop-color="#82c3f2"/><stop id="e6yGSdz3QpZ26-fill-2" offset="100%" stop-color="#76a2da"/></linearGradient><linearGradient id="e6yGSdz3QpZ27-fill" x1="0.5" y1="0.574858" x2="0.470272" y2="-0.694031" spreadMethod="pad" gradientUnits="objectBoundingBox" gradientTransform="translate(0 0)"><stop id="e6yGSdz3QpZ27-fill-0" offset="0%" stop-color="#5f4e3d"/><stop id="e6yGSdz3QpZ27-fill-1" offset="100%" stop-color="#a0b1c2"/></linearGradient></defs><g transform="translate(.000001 0)"><path d="M0.000006,0.000001Q669.138497,376.528593,669.245585,376.528593t580.137251-1.890213L1922.483766,0.000001h-1922.48376Z" transform="translate(.000001 0)" fill="#fff" stroke-width="3.84"/><path d="M154.992838,393.034946l113.585158,18.396566q8.038326,293.930115,0,293.930112t-113.585159-.000004q.000004-312.326672.000001-312.326674Z" transform="translate(.000001 0.000003)" fill="#c5f2eb" stroke-width="3.84"/><g><path d="M1446.385387,570.140331l268.08071,20.314419-5.219282,12.92908-306.315737-22.439423l43.454309-10.804076Z" transform="translate(-6-.999999)" fill="#a5cfcd" stroke-width="3.84"/><path d="M670.617165,705.361621h578.765672L1920,1080L0.000003,1079.999999L670.617165,705.361621Z" transform="translate(.000003 0.000001)" fill="#def8f4" stroke-width="3.84"/><path d="M1163.861861,922.020557l21.072836,35.518098v-91.907538l-21.072836-5.30169v61.69113Z" transform="translate(0 0.000003)" fill="#050404" stroke-width="3.84"/></g><g><path d="M1249.382837,376.52859l161.639124-91.934335.000001,295.992881l287.185484,21.697401-.000002-477.874668Q1923.442602,-0.000002,1922.48373,-0.000002t-.958872,1079.999999L1249.382835,705.361618l.000002-328.833028Z" transform="translate(.000002 0.000003)" fill="#afdcd5" stroke-width="3.84"/><path d="M1411.021961,284.594258q-.000003,169.196302,0,169.196302t287.185484-53.888947v-275.491741L1411.021961,284.594258Z" fill="#afdcd5" stroke-width="3.84"/></g><g><path d="M0,0l.000001,1080l154.992834-85.227815-.000001-618.243595l178.83608,34.902922v484.095763L670.617162,705.361621L669.352665,374.63838L0,0Z" transform="translate(.000003 0)" fill="#afdcd5" stroke-width="3.84"/><path d="" fill="none" stroke="#3f5787" stroke-width="3.84"/><path d="M268.577996,705.361622l-113.585158-.000001" transform="translate(0 0.000001)" fill="none" stroke="#3f5787" stroke-width="3.84"/><path d="M268.577996,892.46737h65.250921l-.000001-481.035858h-65.250922l.000002,481.035858Z" transform="translate(.000004 0)" fill="#92c8c6" stroke-width="3.84"/><path d="M333.828917,411.431512L154.992836,374.63838l.000002,17.24814l113.585159,19.544992h65.250921" fill="#5d9c99" stroke-width="3.84"/></g><g><g><path d="M1451.762432,465.943261l246.445013-36.103343-.000001,159.943078q-246.445013-14.39384-246.445013-19.642667t.000001-104.197068Z" transform="translate(.000001 0.000001)" fill="url(#e6yGSdz3QpZ20-fill)" stroke-width="3.84"/><path d="M1411.021961,453.79056l40.740472,12.152702l246.445014-36.103343-.000002-29.9383q-287.185484,53.888943-287.185484,53.888941Z" transform="translate(0 0.000003)" fill="#5d9c99" stroke-width="3.84"/><path d="" fill="none" stroke="#3f5787" stroke-width="3.84"/></g><path d="M1411.021961,453.79056l40.740471,12.152705v109.995563l-40.740472.000001.000001-122.148269Z" transform="translate(.000001 0.000001)" fill="#92c8c6" stroke-width="3.84"/></g><g transform="translate(.000001 0)"><path d="M669.245583,856.487815l23.989631,10.153598v57.685402l-22.618049,35.121391-1.371582-102.960391Z" transform="translate(.000001-2.999997)" fill="#050404" stroke-width="3.84"/><path d="M669.352668,374.63838l1.2645,330.723241l578.765672-.000001v-330.723242l-580.030172.000002Z" transform="translate(0 0.000003)" fill="url(#e6yGSdz3QpZ26-fill)" stroke-width="3.84"/><path d="M754.430096,735.593617q0-5.268904,367.478944,0l107.981039,131.047795h-605.492793Q754.430094,740.86252,754.430096,735.593617Z" transform="translate(.000002 0.000001)" fill="url(#e6yGSdz3QpZ27-fill)" stroke-width="3.84"/><path d="M624.397288,866.641413h44.95538l1.2645,92.806795-46.219881-1.909554.000001-90.897241Z" transform="translate(.000002 0.000003)" fill="#352b20" stroke-width="3.84"/><path d="M1184.934697,866.641411v92.806796l44.955381-.000001-.000001-92.806797-44.95538.000002Z" transform="translate(.000002 0.000004)" fill="#352b20" stroke-width="3.84"/></g><g transform="translate(.000001 0.000001)"><path d="M1327.930424,769.508709l32.805799,30.517961q0,65.60445,0,65.60445t-32.805799-.000001v-96.12241Z" fill="#8dd8b6" stroke-width="3.84"/><path d="M1712.390091,716.672884l-272.008873-64.723443v90.681215l272.008873,113.857161v-139.814933Z" fill="#7ff1bd" stroke-width="3.84"/><path d="M1712.390088,716.672882l98.018648-.439197v300.376257l-98.018648,2.999999v-302.937059Z" transform="translate(0 0.000002)" fill="#2eed97" stroke-width="3.84"/><path d="M1712.390088,895.527275h-212.321063l-.000003-47.856842h212.321066v47.856842Z" transform="translate(.000001 0)" fill="#2eed97" stroke-width="3.84"/><path d="M1500.069026,895.527275h59.469328v124.698081l-59.469328-.000001v-124.69808Z" transform="translate(0 0.000003)" fill="#2eed97" stroke-width="3.84"/><path d="M1500.069023,1016.609943q0-5.07714,0-174.337212L1305.650056,735.593617l-.000001,24.971886v87.10493l22.280368,17.960687l1.173302-85.826147l146.12754,98.104345v116.862867q24.837757,26.914898,24.837758,21.837758Z" transform="translate(.000001 0)" fill="#67e4ac" stroke-width="3.84"/><path d="M1667.040605,895.527274l45.349486-.000001q-.000002,125.875186-.000002,121.08267t-45.349484-27.210056v-93.872613Z" transform="translate(0 0.000001)" fill="#8dd8b6" stroke-width="3.84"/><path d="M1440.000002,735.593618l-134.349945-.000001l194.418965,111.872856q213.616356,0,208.397074,0t-268.466094-111.872855Z" transform="translate(.000001 0)" fill="#6fddab" stroke-width="3.84"/><path d="M1440.762432,651.949441h53.990573l315.65573,64.284244h-98.018647l-271.627656-64.284244Z" transform="translate(.000003 0)" fill="#abffd9" stroke-width="3.84"/></g><g><path d="M174.843476,705.361621v-146.297276h69.567401v146.297276q-69.567401-.000015-69.567401,0Z" transform="translate(0 0.000001)" fill="#446f63" stroke-width="3.84"/><path d="M154.992839,705.361695v302.252246L341.533508,892.46737h-72.955509l-.000001-187.105675h-113.585159Z" transform="translate(.000004 0)" fill="#def8f4" stroke-width="3.84"/></g><g transform="translate(.000001 0)"><path d="M568.294642,220.117783v-22.394964l101.058026-.000001v22.394964l-101.058026.000001Z" transform="translate(0 0.000003)" fill="#ffe600" stroke-width="3.84"/><path d="M568.294642,220.117786h101.058026L770.196519,331.094891l-65.491298-.000001L568.294642,220.117786Z" transform="translate(.000003 0.000003)" fill="#fff066" stroke-width="3.84"/><path d="M670.617172,220.117789l99.57935,110.977102v-14.745486L669.245584,197.722818" fill="#ddca14" stroke-width="3.84"/><path d="M1160.368113,331.094891l75.878546.000003l124.489564-86.747336h-118.636974l-81.731136,86.747333Z" transform="translate(0 0.000001)" fill="#fff066" stroke-width="3.84"/><path d="M1360.736223,216.057174h-118.636974v28.290385h118.636974v-28.290385Z" fill="#ffe600" stroke-width="3.84"/><path d="" fill="none" stroke="#3f5787" stroke-width="3.84"/><path d="M1160.368113,331.094895q0-.000004,0-20.946232l81.731136-94.091489v28.290384q-81.731136,86.747339-81.731136,86.747337Z" transform="translate(0 0.000002)" fill="#ddca14" stroke-width="3.84"/></g></g></svg>
