<svg id="epaJrVxAyUW1" xmlns="http://www.w3.org/2000/svg" xmlns:xlink="http://www.w3.org/1999/xlink" viewBox="0 0 720 405" shape-rendering="geometricPrecision" text-rendering="geometricPrecision" project-id="be420273a1664ee7bfbd3cc8d36654bb" export-id="b4626b05cdc5402fbf1eddb52f5c1685" cached="true"><rect width="392.572203" height="392.572203" rx="66" ry="66" transform="matrix(1.005587 0 0 1.004345 162.617248 5.361036)" fill="#fffc01" stroke-width="0" stroke-linecap="round"/><path d="M356.29987,62.765746c-51.895944,0-84.126167,47.992684-78.664491,93.190933q-36.363863-1.462094-32.65343,28.267148c4.386281,18.276173,27.292418,26.317689,27.779783,26.317689s5.784318,4.562891-15.581224,26.811306c-7.694899,9.535035-35.844669,25.07361-35.844669,25.250185s-10.960645,3.819754,0,19.722253s32.388064,15.941313,32.469397,16.266646.209178,9.804075,18.956496,18.451639q28.725277,0,43.858514,10.975754q27.54012,12.521323,39.679624,12.521323" transform="translate(.000001 0.680361)" fill="#fff" stroke="#000" stroke-width="15"/><path d="M356.29987,62.765746c-51.895944,0-84.126167,47.992684-78.664491,93.190933q-36.363863-1.462094-32.65343,28.267148c4.386281,18.276173,27.292418,26.317689,27.779783,26.317689s5.784318,4.562891-15.581224,26.811306c-7.694899,9.535035-35.844669,25.07361-35.844669,25.250185s-10.960645,3.819754,0,19.722253s32.388064,15.941313,32.469397,16.266646.209178,9.804075,18.956496,18.451639q28.725277,0,43.858514,10.975754q27.54012,12.521323,39.679624,12.521323" transform="matrix(-1 0 0 1 712.599741 0.846816)" fill="#fff" stroke="#000" stroke-width="15"/></svg>
