<svg id="e4Yx6rgLZep1" xmlns="http://www.w3.org/2000/svg" xmlns:xlink="http://www.w3.org/1999/xlink" viewBox="0 0 792 612" shape-rendering="geometricPrecision" text-rendering="geometricPrecision" project-id="627bc34bd3f84227b5b62c7cf889064a" export-id="abd923d613f445debc0a09b4c7e6042b" cached="true"><rect width="446.296029" height="454.397112" rx="50" ry="50" transform="matrix(.96363 0 0 0.974066 181.704341 58.076979)"/><g transform="translate(-.164193 0.560389)"><path d="M350.77062,254.242528l.061782-44.825302q-50.769419-3.048881-77.233834,35.138339c-21.475109,29.479351-19.477891,61.329424,3.777743,96.212119q32.33761,37.817724,85.068589,25.832174q53.243245-16.557412,58.205323-74.250333l.055371-90.164455q38.717493,18.488686,60.764954,17.684829.537744-13.665549.537744-43.408216-59.121919-6.422551-61.917288-59.910069-7.865675.194608-45.722324-.79404l1.070259,170.717816q-2.656825,46.776729-50.922492,35.303192c-26.694612-16.568732-29.325003-46.256833-2.656826-64.869616c6.951623-4.851815,18.59778-5.295478,28.910999-2.666438Z" transform="translate(40.032873-7.559325)" fill="#ee1e52" stroke-width="1.584"/><path style="mix-blend-mode:screen" d="M350.77062,254.242528l.061782-44.825302q-50.769419-3.048881-77.233834,35.138339c-21.475109,29.479351-19.477891,61.329424,3.777743,96.212119q32.33761,37.817724,85.068589,25.832174q53.243245-16.557412,58.205323-74.250333l.055371-90.164455q38.717493,18.488686,60.764954,17.684829.537744-13.665549.537744-43.408216-59.121919-6.422551-61.917288-59.910069-7.865675.194608-45.722324-.79404l1.070259,170.717816q-2.656825,46.776729-50.922492,35.303192c-26.694612-16.568732-29.325003-46.256833-2.656826-64.869616c6.951623-4.851815,18.59778-5.295478,28.910999-2.666438Z" transform="translate(27.766238-24.35929)" fill="#0ef" stroke-width="1.584"/></g><g transform="translate(-.173854-51.555717)"><path d="M261.232886,437.126076l.245426,12.271311l14.480147.245426v48.348966h15.216426l-.490852-48.348966l12.516737.245426l2.699689-12.762163h-44.667573Z" fill="#fff" stroke-width="1.584"/><path d="M261.232886,437.126076l.245426,12.271311l14.480147.245426v48.348966h15.216426l-.490852-48.348966l12.516737.245426l2.699689-12.762163h-44.667573Z" transform="translate(120.504275-.245426)" fill="#fff" stroke-width="1.584"/><g transform="translate(0 0.000001)"><ellipse rx="6.503795" ry="6.503795" transform="translate(316.821926 443.875297)" fill="#fff" stroke-width="0"/><rect width="14.725573" height="41.231606" rx="0" ry="0" transform="translate(309.581853 456.514747)" fill="#fff" stroke-width="0"/></g><path d="M329.328493,436.980572l.187795,60.198976l14.619999.04-.181077-15.344448l4.672956-3.807594l14.19194,19.211041l15.922664.173072q-20.941766-27.864666-20.422549-28.9031t17.480316-17.65339l-19.03797-.173073-12.288145,12.634287-.000001-26.480085-15.145928.104314Z" transform="translate(156.261601-.737077)" fill="#fff" stroke-width="1.584"/><path d="M329.328493,436.980572l.187795,60.198976l14.619999.04-.181077-15.344448l4.672956-3.807594l14.19194,19.211041l15.922664.173072q-20.941766-27.864666-20.422549-28.9031t17.480316-17.65339l-19.03797-.173073-12.288145,12.634287-.000001-26.480085-15.145928.104314Z" transform="translate(1.474175 0.000006)" fill="#fff" stroke-width="1.584"/><g><path d="M474.29456,472.31562c0,13.55676-11.10835,24.54668-24.81119,24.54668v-12.51997c.29576.02086.59449.03147.8958.03147c6.66151,0,12.06173-5.18705,12.06173-11.58561s-5.40022-11.58561-12.06173-11.58561c-.30131,0-.60004.01061-.8958.03147v-13.46511c13.70284,0,24.81119,10.98992,24.81119,24.54668Z" transform="translate(4.121676-.147757)" fill="#ee1e52" stroke-width="0"/><path d="M424.67218,472.31562c0-13.55676,11.10835-24.54668,24.81119-24.54668v13.46511c-6.24318.44024-11.16593,5.445-11.16593,11.55414s4.92275,11.1139,11.16593,11.55414v12.37221h2.73795c-.89907.09764-1.81259.14776-2.73795.14776-13.70284,0-24.81119-10.98992-24.81119-24.54668Z" transform="translate(-2.73795-.147757)" fill="#0ef" stroke-width="0"/><path d="M424.61561,471.80768c0-13.55676,11.10835-24.54668,24.81119-24.54668s24.81119,10.98992,24.81119,24.54668-11.10835,24.54668-24.81119,24.54668-24.81119-10.98992-24.81119-24.54668Zm25.70699,12.05818c6.66151,0,12.06173-5.18705,12.06173-11.58561s-5.40022-11.58561-12.06173-11.58561-12.06173,5.18705-12.06173,11.58561s5.40022,11.58561,12.06173,11.58561Z" transform="translate(.05657 0.507942)" fill="#fff" stroke-width="0"/></g></g></svg>
